<?xml version="1.0" encoding="utf-8"?>
<!-- Generator: Adobe Illustrator 19.2.0, SVG Export Plug-In . SVG Version: 6.00 Build 0)  -->
<svg version="1.1" id="Layer_1" xmlns="http://www.w3.org/2000/svg" xmlns:xlink="http://www.w3.org/1999/xlink" x="0px" y="0px"
	 viewBox="0 0 220 12" style="enable-background:new 0 0 220 12;" xml:space="preserve">
<style type="text/css">
	.st0{fill:#FB8046;}
	.st1{fill:#FFFFFF;}
</style>
<g>
	<path class="st0" d="M11.4,0.7c0-0.1,0.1-0.2,0.2-0.2h0.2c0.1,0,0.2,0.1,0.2,0.1l3.5,6.5l0,0L19,0.6c0-0.1,0.2-0.1,0.2-0.1h0.2
		c0.1,0,0.2,0.1,0.2,0.2l1.7,10.1c0,0.2-0.1,0.3-0.3,0.3h-1.7c-0.1,0-0.2-0.1-0.3-0.2l-0.7-4.7l0,0l-2.5,4.9c0,0.1-0.2,0.2-0.2,0.2
		h-0.2c-0.1,0-0.2-0.1-0.2-0.2l-2.5-4.9l0,0L12,10.9c0,0.1-0.1,0.2-0.3,0.2H10c-0.2,0-0.3-0.1-0.3-0.3L11.4,0.7z"/>
	<path class="st0" d="M31.8,0.5c1.5,0,2.6,0.4,3.7,1.4c0.1,0.1,0.1,0.3,0,0.4l-1.2,1.2c-0.1,0.1-0.2,0.1-0.3,0
		c-0.5-0.5-1.3-0.8-2.1-0.8c-1.7,0-2.9,1.4-2.9,3.2c0,1.6,1.3,3,2.9,3c0.8,0,1.5-0.2,2.1-0.8c0.1-0.1,0.3-0.1,0.4,0l1.2,1.3
		c0.1,0.1,0.1,0.3,0,0.4c-1.2,1-2.5,1.4-3.8,1.4c-3,0-5.4-2.4-5.4-5.4S28.8,0.5,31.8,0.5z"/>
	<path class="st0" d="M39.8,10.8l4.7-10.1c0-0.1,0.1-0.2,0.2-0.2h0.1c0.1,0,0.2,0.1,0.2,0.2l4.7,10.1c0.1,0.2,0,0.4-0.2,0.4h-1.6
		c-0.2,0-0.4-0.1-0.5-0.3l-0.5-1.2h-4.1l-0.5,1.2c-0.1,0.2-0.2,0.3-0.5,0.3h-1.6C39.8,11.3,39.7,11.1,39.8,10.8z M46,7.6l-1.2-2.5
		l0,0l-1.1,2.5H46z"/>
	<path class="st1" d="M60.8,10.8l4.7-10.1c0-0.1,0.2-0.2,0.2-0.2h0.1c0.1,0,0.2,0.1,0.2,0.2l4.6,10.1c0.1,0.2,0,0.4-0.2,0.4h-1
		c-0.2,0-0.3-0.1-0.3-0.2l-1-2.1h-4.9c-0.3,0.7-0.7,1.4-0.9,2.1c0,0.1-0.2,0.2-0.3,0.2h-1C60.8,11.3,60.7,11.1,60.8,10.8z M67.5,7.7
		l-1.8-4.1h-0.1l-1.8,4.1H67.5z"/>
	<path class="st1" d="M75.9,0.9c0-0.1,0.1-0.3,0.3-0.3h4.1c1.8,0,3.3,1.4,3.3,3.3c0,1.4-0.9,2.5-2.3,3l2.1,3.8
		c0.1,0.2,0,0.4-0.2,0.4H82c-0.1,0-0.2-0.1-0.2-0.1l-2-4h-2.4v3.8c0,0.1-0.1,0.3-0.3,0.3h-1c-0.2,0-0.3-0.1-0.3-0.3V0.9H75.9z
		 M80.1,5.8C81.1,5.8,82,5,82,4s-0.9-1.8-1.8-1.8h-2.7v3.7H80.1z"/>
	<path class="st1" d="M94.1,0.5c1.5,0,2.6,0.5,3.7,1.4c0.1,0.1,0.1,0.3,0,0.4L97.2,3c-0.1,0.1-0.2,0.1-0.3,0c-0.8-0.7-1.6-1-2.6-1
		c-2.2,0-3.8,1.8-3.8,3.9c0,2.1,1.6,3.9,3.8,3.9c1.1,0,1.8-0.4,2.6-1c0.1-0.1,0.2-0.1,0.3,0l0.7,0.7c0.1,0.1,0.1,0.3,0,0.4
		c-1,1-2.3,1.4-3.7,1.4c-3,0-5.4-2.4-5.4-5.4C88.6,2.9,91.1,0.5,94.1,0.5z"/>
	<path class="st1" d="M103.5,0.9c0-0.1,0.1-0.3,0.3-0.3h1c0.2,0,0.3,0.1,0.3,0.3v4.2h5.5V0.9c0-0.1,0.1-0.3,0.3-0.3h1
		c0.1,0,0.3,0.1,0.3,0.3v10c0,0.1-0.1,0.3-0.3,0.3h-1c-0.2,0-0.3-0.1-0.3-0.3V6.6h-5.5v4.3c0,0.1-0.1,0.3-0.3,0.3h-1
		c-0.1,0-0.3-0.1-0.3-0.3V0.9z"/>
	<path class="st1" d="M118.7,0.9c0-0.1,0.1-0.3,0.3-0.3h1c0.1,0,0.3,0.1,0.3,0.3v10c0,0.1-0.1,0.3-0.3,0.3h-1
		c-0.1,0-0.3-0.1-0.3-0.3V0.9z"/>
	<path class="st1" d="M128.1,2h-2.5c-0.2,0-0.3-0.1-0.3-0.3V0.8c0-0.1,0.1-0.3,0.3-0.3h6.5c0.2,0,0.3,0.1,0.3,0.3v0.9
		c0,0.1-0.1,0.3-0.3,0.3h-2.5v8.8c0,0.1-0.1,0.3-0.3,0.3h-0.9c-0.1,0-0.3-0.1-0.3-0.3V2z"/>
	<path class="st1" d="M137.7,0.9c0-0.1,0.1-0.3,0.3-0.3h6c0.2,0,0.3,0.1,0.3,0.3v0.9c0,0.1-0.1,0.3-0.3,0.3h-4.7v3h4
		c0.1,0,0.3,0.1,0.3,0.3v0.9c0,0.2-0.1,0.3-0.3,0.3h-4V10h4.8c0.2,0,0.3,0.1,0.3,0.3v0.9c0,0.1-0.1,0.3-0.3,0.3h-6
		c-0.2,0-0.3-0.1-0.3-0.3V0.9H137.7z"/>
	<path class="st1" d="M154.6,0.5c1.5,0,2.6,0.5,3.7,1.4c0.1,0.1,0.1,0.3,0,0.4L157.7,3c-0.1,0.1-0.2,0.1-0.3,0c-0.8-0.7-1.6-1-2.6-1
		c-2.2,0-3.8,1.8-3.8,3.9c0,2.1,1.6,3.9,3.8,3.9c1.1,0,1.8-0.4,2.6-1c0.1-0.1,0.2-0.1,0.3,0l0.7,0.7c0.1,0.1,0.1,0.3,0,0.4
		c-1,1-2.3,1.4-3.7,1.4c-3,0-5.4-2.4-5.4-5.4C149.2,2.9,151.6,0.5,154.6,0.5z"/>
	<path class="st1" d="M165.9,2h-2.5c-0.2,0-0.3-0.1-0.3-0.3V0.8c0-0.1,0.1-0.3,0.3-0.3h6.5c0.2,0,0.3,0.1,0.3,0.3v0.9
		c0,0.1-0.1,0.3-0.3,0.3h-2.5v8.8c0,0.1-0.1,0.3-0.3,0.3h-1c-0.1,0-0.3-0.1-0.3-0.3V2H165.9z"/>
	<path class="st1" d="M175.4,0.9c0-0.1,0.1-0.3,0.3-0.3h1c0.2,0,0.3,0.1,0.3,0.3v6.2c0,1.5,1,2.7,2.5,2.7c1.5,0,2.5-1.2,2.5-2.6V0.9
		c0-0.1,0.1-0.3,0.3-0.3h1c0.1,0,0.3,0.1,0.3,0.3v6.3c0,2.3-1.7,4.1-4.1,4.1c-2.4,0-4.1-1.8-4.1-4.1V0.9z"/>
	<path class="st1" d="M190.1,0.9c0-0.1,0.1-0.3,0.3-0.3h4.1c1.8,0,3.3,1.4,3.3,3.3c0,1.4-0.9,2.5-2.3,3l2.1,3.8
		c0.1,0.2,0,0.4-0.2,0.4h-1.2c-0.1,0-0.2-0.1-0.2-0.1l-2-4h-2.3v3.8c0,0.1-0.1,0.3-0.3,0.3h-1c-0.2,0-0.3-0.1-0.3-0.3V0.9z
		 M194.3,5.8c1,0,1.8-0.9,1.8-1.8s-0.9-1.8-1.8-1.8h-2.7v3.7H194.3z"/>
	<path class="st1" d="M203.7,0.9c0-0.1,0.1-0.3,0.3-0.3h6c0.2,0,0.3,0.1,0.3,0.3v0.9c0,0.1-0.1,0.3-0.3,0.3h-4.8v3h4
		c0.1,0,0.3,0.1,0.3,0.3v0.9c0,0.2-0.1,0.3-0.3,0.3h-4V10h4.8c0.2,0,0.3,0.1,0.3,0.3v0.9c0,0.1-0.1,0.3-0.3,0.3h-6
		c-0.2,0-0.3-0.1-0.3-0.3V0.9z"/>
</g>
</svg>
